<?xml version="1.0" standalone="no"?>
<!DOCTYPE svg PUBLIC "-//W3C//DTD SVG 1.1//EN" "http://www.w3.org/Graphics/SVG/1.1/DTD/svg11.dtd" >
<svg xmlns="http://www.w3.org/2000/svg">
<metadata>
This is a custom SVG webfont generated by Font Squirrel.
Copyright   : Copyright c 19922011 YOFonts All rights reserved Version 210 Designed by Yamaoka Yasuhiro 1992
Designer    : Yamaoka Yasuhiro
Foundry     : YOFonts
Foundry URL : wwwyoworkscom
</metadata>
<defs>
<font id="EauSansBold" horiz-adv-x="1334" >
<font-face units-per-em="2048" ascent="1593" descent="-455" />
<missing-glyph horiz-adv-x="530" />
<glyph unicode=" "  horiz-adv-x="530" />
<glyph unicode="&#x09;" horiz-adv-x="530" />
<glyph unicode="&#xa0;" horiz-adv-x="530" />
<glyph unicode="!" horiz-adv-x="629" d="M152 1517h326l-64 -1092h-199zM170 0v278h290v-278h-290z" />
<glyph unicode="&#x22;" horiz-adv-x="1001" d="M141 1009l64 508h291l-194 -508h-161zM558 1009l64 508h291l-194 -508h-161z" />
<glyph unicode="#" horiz-adv-x="1228" d="M46 569v182h238l65 315h-206v181h242l55 270h190l-55 -270h217l55 270h188l-53 -270h201v-181h-239l-64 -315h205v-182h-242l-54 -266h-190l53 266h-215l-53 -266h-191l54 266h-201zM473 751h217l64 315h-215z" />
<glyph unicode="$" horiz-adv-x="1066" d="M61 220l156 156q94 -97 235 -114v413q-64 21 -105.5 38.5t-95.5 51t-84 72t-53 99.5t-23 137q0 140 94 249t267 137v210h175v-204q223 -17 373 -166l-157 -157q-96 96 -216 113v-378q67 -23 109 -39.5t98.5 -51t89 -73.5t56 -101.5t23.5 -139.5q0 -161 -99.5 -272.5 t-276.5 -141.5v-210h-175v202q-239 18 -391 170zM355 1086q0 -88 105 -144v290q-50 -23 -77.5 -63.5t-27.5 -82.5zM619 287q114 56 114 174q0 96 -114 152v-326z" />
<glyph unicode="%" horiz-adv-x="1846" d="M53 1100q0 193 108 312.5t274.5 119.5t274.5 -119.5t108 -312.5t-108 -313t-274.5 -120t-274.5 120t-108 313zM249 1100q0 -118 51.5 -190.5t135 -72.5t135 72.5t51.5 190.5t-51.5 190t-135 72t-135 -72t-51.5 -190zM334 -76l986 1669h192l-986 -1669h-192zM1029 417.5 q0 192.5 107.5 312.5t274.5 120q168 0 275 -120t107 -312.5t-107 -312.5t-275 -120q-167 0 -274.5 120t-107.5 312.5zM1226 417.5q0 -118.5 51.5 -190.5t133.5 -72q83 0 134.5 72t51.5 190.5t-51.5 190.5t-134.5 72q-82 0 -133.5 -72t-51.5 -190.5z" />
<glyph unicode="&#x26;" horiz-adv-x="1486" d="M99 393q0 143 74 250.5t223 192.5q-106 105 -148 183.5t-42 178.5q0 58 27.5 118t77 111t130.5 83.5t178 32.5q190 0 300 -108.5t110 -236.5q0 -115 -61 -206t-190 -180l292 -292q47 127 47 314h265q0 -297 -114 -512l323 -322h-355l-135 135q-179 -162 -452 -162 q-249 0 -399.5 116.5t-150.5 303.5zM381 410q0 -96 76.5 -160.5t188.5 -64.5q174 0 285 120l-376 376q-91 -55 -132.5 -119t-41.5 -152zM467 1191q0 -59 30.5 -104t112.5 -127q88 58 124.5 111t36.5 120q0 56 -43.5 100t-108.5 44t-108.5 -44t-43.5 -100z" />
<glyph unicode="'" horiz-adv-x="591" d="M144 1009l64 508h293l-195 -508h-162z" />
<glyph unicode="(" horiz-adv-x="758" d="M164 758.5q0 433.5 276 864.5l238 -91q-243 -378 -243 -773q0 -408 243 -774l-238 -91q-276 431 -276 864.5z" />
<glyph unicode=")" horiz-adv-x="758" d="M80 -15q243 378 243 774q0 408 -243 773l239 91q127 -202 201.5 -410.5t74.5 -454t-74.5 -454t-201.5 -410.5z" />
<glyph unicode="*" horiz-adv-x="852" d="M47 1188l46 141l259 -85v273h149v-273l259 85l46 -141l-260 -85l161 -220l-120 -88l-161 221l-161 -221l-119 88l160 220z" />
<glyph unicode="+" horiz-adv-x="1152" d="M83 648v189h399v399h189v-399h399v-189h-399v-398h-189v398h-399z" />
<glyph unicode="," horiz-adv-x="591" d="M111 -231l63 509h292l-194 -509h-161z" />
<glyph unicode="-" horiz-adv-x="705" d="M91 473v190h523v-190h-523z" />
<glyph unicode="." horiz-adv-x="591" d="M152 0v278h288v-278h-288z" />
<glyph unicode="/" horiz-adv-x="667" d="M38 -76l417 1669h175l-418 -1669h-174z" />
<glyph unicode="0" horiz-adv-x="1365" d="M106 758.5q0 356.5 154 569t422.5 212.5t422.5 -212.5t154 -569t-154 -569t-422.5 -212.5t-422.5 212.5t-154 569zM394 758.5q0 -273.5 73 -413.5t215.5 -140t215.5 140t73 413.5t-73 413.5t-215.5 140t-215.5 -140t-73 -413.5z" />
<glyph unicode="1" horiz-adv-x="872" d="M61 1098v234q90 12 194.5 69.5t161.5 115.5h238v-1517h-268v1235q-42 -42 -135.5 -82.5t-190.5 -54.5z" />
<glyph unicode="2" horiz-adv-x="1183" d="M99 0v194q394 357 533.5 543.5t139.5 339.5q0 99 -62 165.5t-171 66.5q-138 0 -263 -124l-173 173q187 187 455 186q225 0 360 -122t135 -315q0 -188 -131.5 -389t-428.5 -478h607v-240h-1001z" />
<glyph unicode="3" horiz-adv-x="1168" d="M59 159l175 173q121 -124 274 -124q121 0 198.5 66t77.5 160t-76.5 160t-199.5 66h-139v240h139q123 0 190.5 58t67.5 146t-68 146.5t-182 58.5q-141 0 -266 -124l-173 173q188 185 439 185q226 0 374.5 -122t148.5 -312q0 -120 -71 -209.5t-156 -118.5 q103 -33 182.5 -136t79.5 -219q0 -193 -157.5 -323t-400.5 -130q-289 -1 -457 186z" />
<glyph unicode="4" horiz-adv-x="1319" d="M91 341v246l658 930h281v-936h220v-240h-220v-341h-264v341h-675zM358 581h408v583z" />
<glyph unicode="5" horiz-adv-x="1198" d="M99 159l173 173q121 -124 282 -124q127 0 205 79.5t78 190.5q0 115 -78 194.5t-205 79.5q-97 0 -178 -60l-217 109v716h865v-240h-595v-339q79 38 181 37q217 0 358.5 -143t141.5 -354q0 -218 -152 -361.5t-397 -143.5q-297 -1 -462 186z" />
<glyph unicode="6" d="M117 758.5q0 358.5 167 570t467 211.5q140 0 256.5 -52.5t193.5 -129.5l-172 -173q-120 120 -281 120q-164 0 -257.5 -130.5t-97.5 -359.5q33 59 122 109.5t193 50.5q229 0 378 -143t149 -356q0 -215 -154 -357t-388 -142q-279 0 -427.5 211.5t-148.5 570zM426 476.5 q0 -112.5 73.5 -194.5t193.5 -82q121 0 195 81.5t74 194.5q0 112 -73.5 193.5t-195.5 81.5q-120 0 -193.5 -81t-73.5 -193.5z" />
<glyph unicode="7" horiz-adv-x="1175" d="M61 1277v240h1034v-194q-209 -300 -338 -598.5t-217 -724.5h-308q103 435 223.5 728t298.5 549h-693z" />
<glyph unicode="8" horiz-adv-x="1304" d="M94 426q0 114 79.5 218t179.5 137q-83 29 -153.5 118.5t-70.5 209.5q0 190 148 312t375 122q226 0 375 -122t149 -312q0 -120 -71.5 -209.5t-156.5 -118.5q103 -33 183 -136t80 -219q0 -193 -158 -323t-400.5 -130t-400.5 130t-158 323zM382 434q0 -100 74.5 -170.5 t196 -70.5t195.5 70.5t74 170.5t-74 170.5t-195.5 70.5t-196 -70.5t-74.5 -170.5zM402 1104q0 -91 68.5 -154.5t181.5 -63.5q112 0 181.5 63.5t69.5 154.5t-69 155t-182 64q-114 0 -182 -64t-68 -155z" />
<glyph unicode="9" d="M100 1041q0 215 154 357t386 142q188 0 319.5 -99.5t195 -273t63.5 -408.5q0 -358 -167 -570t-467 -212q-140 0 -256.5 52.5t-194.5 129.5l173 173q120 -120 281 -120q164 0 257.5 130.5t96.5 359.5q-33 -59 -121.5 -109t-192.5 -50q-229 0 -378 143t-149 355zM373 1041 q0 -114 73.5 -194.5t195 -80.5t194.5 80.5t73 194.5q0 112 -74.5 193t-194.5 81t-193.5 -81t-73.5 -193z" />
<glyph unicode=":" horiz-adv-x="591" d="M152 0v278h288v-278h-288zM152 815v277h288v-277h-288z" />
<glyph unicode=";" horiz-adv-x="591" d="M111 -231l63 509h292l-194 -509h-161zM152 815v277h288v-277h-288z" />
<glyph unicode="&#x3c;" horiz-adv-x="667" d="M114 607l212 425h264l-212 -425l212 -425h-264z" />
<glyph unicode="=" horiz-adv-x="1152" d="M83 458v190h987v-190h-987zM83 837v190h987v-190h-987z" />
<glyph unicode="&#x3e;" horiz-adv-x="667" d="M77 182l213 425l-213 425h264l213 -425l-213 -425h-264z" />
<glyph unicode="?" horiz-adv-x="1080" d="M46 1358q190 187 447 186q225 0 365 -125.5t140 -308.5q0 -105 -38.5 -180.5t-112.5 -145.5q-5 -12 -53 -52t-52 -48q-76 -71 -107 -124t-31 -135h-258q0 202 126 330q5 11 50 51.5t50 49.5q65 67 95.5 118.5t30.5 128.5q0 80 -61.5 143t-154.5 63q-143 0 -264 -124z M329 0v278h288v-278h-288z" />
<glyph unicode="@" horiz-adv-x="1729" d="M79 781q9 147 75.5 285.5t174.5 245t262 171t325 64.5q353 0 561 -218.5t178 -554.5q-17 -188 -141 -319.5t-281 -131.5q-83 0 -133 51.5t-46 132.5q-38 -85 -132 -136.5t-194 -51.5q-147 0 -239 126.5t-60 303.5q33 191 165.5 312t286.5 121q73 0 138.5 -38t86.5 -97 l20 117h204l-104 -591q-15 -97 51 -97q76 0 143.5 93.5t78.5 226.5q21 265 -140.5 432.5t-430.5 167.5q-137 0 -258.5 -53.5t-208 -143t-140.5 -206t-65 -242.5q-21 -262 140 -443.5t428 -181.5q247 0 441 171l109 -121q-250 -206 -576 -206q-223 0 -393.5 107.5 t-255.5 292.5t-70 411zM643 749q-21 -115 25.5 -185.5t132.5 -70.5q90 0 161 70t92 186q20 117 -27 187.5t-133 70.5q-88 0 -159 -70t-92 -188z" />
<glyph unicode="A" horiz-adv-x="1441" d="M0 0l564 1517h311l566 -1517h-308l-120 349h-585l-120 -349h-308zM510 587h421l-210 605z" />
<glyph unicode="B" horiz-adv-x="1342" d="M182 0v1517h587q202 0 327 -108.5t125 -267.5q0 -141 -85 -246t-229 -130q155 -17 250 -114t95 -246q0 -177 -127 -291t-354 -114h-589zM466 232h245q120 0 184.5 58.5t64.5 160.5q0 91 -66 146t-183 55h-245v-420zM466 874h223q109 0 175.5 57.5t66.5 153.5 q0 91 -54.5 145.5t-163.5 54.5h-247v-411z" />
<glyph unicode="C" horiz-adv-x="1331" d="M91 758.5q0 351.5 200.5 566.5t527.5 215q294 0 477 -182l-173 -173q-115 117 -296 117q-191 0 -314 -146.5t-123 -397t123 -397t314 -146.5q181 0 296 117l173 -173q-182 -182 -477 -182q-328 0 -528 215t-200 566.5z" />
<glyph unicode="D" horiz-adv-x="1506" d="M182 0v1517h451q349 0 565.5 -197t216.5 -561q0 -363 -219 -561t-563 -198h-451zM470 238h157q217 0 352.5 136t135.5 384.5t-136 383.5t-352 135h-157v-1039z" />
<glyph unicode="E" horiz-adv-x="1133" d="M182 0v1517h824v-240h-536v-394h519v-240h-519v-405h549v-238h-837z" />
<glyph unicode="F" horiz-adv-x="1080" d="M182 0v1517h837v-240h-549v-394h536v-240h-536v-643h-288z" />
<glyph unicode="G" horiz-adv-x="1456" d="M91 758.5q0 353.5 204 567.5t544 214q150 0 281.5 -48.5t216.5 -133.5l-173 -173q-114 117 -314 117q-202 0 -331 -146.5t-129 -396.5q0 -253 128 -396t332 -143q121 0 207 41v337h-279v239h568v-743q-88 -52 -224 -84.5t-283 -32.5q-340 0 -544 214t-204 567.5z" />
<glyph unicode="H" horiz-adv-x="1501" d="M182 0v1517h288v-634h562v634h288v-1517h-288v643h-562v-643h-288z" />
<glyph unicode="I" horiz-adv-x="652" d="M182 0v1517h288v-1517h-288z" />
<glyph unicode="J" horiz-adv-x="1069" d="M0 161l173 171q91 -120 223 -120q94 0 148.5 59.5t54.5 163.5v1082h288v-1082q0 -211 -137 -338t-354 -127q-232 0 -396 191z" />
<glyph unicode="K" horiz-adv-x="1357" d="M182 0v1517h288v-695l527 695h361l-599 -743l622 -774h-365l-546 724v-724h-288z" />
<glyph unicode="L" horiz-adv-x="1019" d="M182 0v1517h288v-1279h549v-238h-837z" />
<glyph unicode="M" horiz-adv-x="1941" d="M182 0v1517h425l364 -1227l364 1227h425v-1517h-266v1227l-364 -1227h-318l-364 1227v-1227h-266z" />
<glyph unicode="N" horiz-adv-x="1539" d="M182 0v1517h361l545 -1153v1153h270v-1517h-361l-545 1153v-1153h-270z" />
<glyph unicode="O" horiz-adv-x="1577" d="M91 758.5q0 351.5 193.5 566.5t504.5 215t504.5 -215t193.5 -566.5t-193.5 -566.5t-504.5 -215t-504.5 215t-193.5 566.5zM390 758.5q0 -250.5 112 -397t287 -146.5q170 0 284.5 147.5t114.5 396t-114.5 396t-284.5 147.5q-174 0 -286.5 -146.5t-112.5 -397z" />
<glyph unicode="P" horiz-adv-x="1269" d="M182 0v1517h539q223 0 363 -130.5t140 -321.5q0 -196 -139.5 -324t-363.5 -128h-251v-613h-288zM470 853h223q111 0 173 59t62 151.5t-62 153t-173 60.5h-223v-424z" />
<glyph unicode="Q" horiz-adv-x="1577" d="M91 758.5q0 351.5 193.5 566.5t504.5 215t504.5 -215t193.5 -566q0 -294 -164 -507l250 -126l-192 -194l-264 132q-149 -86 -328 -87q-311 0 -504.5 215t-193.5 566.5zM390 758.5q0 -250.5 112 -397t287 -146.5q170 0 284.5 147.5t114.5 396t-114.5 396t-284.5 147.5 q-174 0 -286.5 -146.5t-112.5 -397z" />
<glyph unicode="R" horiz-adv-x="1342" d="M182 0v1517h558q234 0 360 -115.5t126 -291.5q0 -124 -73.5 -226.5t-193.5 -135.5q174 -30 217 -235l107 -513h-306l-91 464q-17 86 -63 127.5t-133 41.5h-221v-633h-287zM469 863h218q109 0 177.5 58.5t68.5 155.5q0 94 -55.5 149.5t-166.5 55.5h-242v-419z" />
<glyph unicode="S" horiz-adv-x="1171" d="M61 159l173 173q124 -127 314 -127q115 0 187 65t72 159q0 62 -39.5 106.5t-102.5 71t-139.5 50.5t-153 57.5t-139.5 79t-102.5 126t-39.5 187.5q0 182 140.5 311t390.5 129q291 0 481 -189l-173 -173q-124 127 -288 127q-120 0 -186 -57.5t-66 -131.5q0 -61 39.5 -105 t103 -70.5t140 -51t152.5 -58.5t140 -80.5t103 -127.5t39 -190q0 -209 -147.5 -339.5t-404.5 -130.5q-301 -1 -494 189z" />
<glyph unicode="T" horiz-adv-x="1183" d="M8 1282v235h1168v-235h-440v-1282h-288v1282h-440z" />
<glyph unicode="U" horiz-adv-x="1509" d="M182 496v1021h288v-1021q0 -137 80 -212.5t204 -75.5t204.5 76t80.5 212v1021h288v-1021q0 -250 -157.5 -388t-415.5 -138q-256 0 -414 138t-158 388z" />
<glyph unicode="V" horiz-adv-x="1403" d="M3 1517h308l390 -1170l391 1170h307l-546 -1517h-302z" />
<glyph unicode="W" horiz-adv-x="1947" d="M0 1517h297l257 -1176l252 1176h335l253 -1176l257 1176h297l-382 -1517h-340l-252 1170l-252 -1170h-340z" />
<glyph unicode="X" horiz-adv-x="1409" d="M15 0l502 783l-471 734h361l298 -519l296 519h363l-472 -734l502 -783h-361l-328 566l-330 -566h-360z" />
<glyph unicode="Y" horiz-adv-x="1260" d="M-64 1517h360l334 -573l335 573h359l-549 -860v-657h-290v657z" />
<glyph unicode="Z" horiz-adv-x="1130" d="M68 0v225l637 1052h-622v240h964v-224l-637 -1055h652v-238h-994z" />
<glyph unicode="[" horiz-adv-x="773" d="M182 -76v1669h493v-205h-243v-1259h243v-205h-493z" />
<glyph unicode="\" horiz-adv-x="667" d="M38 1593h174l418 -1669h-175z" />
<glyph unicode="]" horiz-adv-x="773" d="M99 -76v205h242v1259h-242v205h493v-1669h-493z" />
<glyph unicode="^" horiz-adv-x="682" d="M38 1198l187 349h233l187 -349h-194l-110 198l-107 -198h-196z" />
<glyph unicode="_" horiz-adv-x="826" d="M0 0v167h827v-167h-827z" />
<glyph unicode="`" horiz-adv-x="682" d="M117 1547h303l144 -349h-148z" />
<glyph unicode="a" horiz-adv-x="1213" d="M99 299q0 152 129 252.5t382 100.5h171q0 88 -7 94q-6 68 -70 116t-155 48q-137 0 -240 -92l-154 154q181 150 421 151q217 0 344 -114.5t127 -290.5v-718h-258v167q-41 -90 -126 -140t-205 -50q-153 0 -256 94.5t-103 227.5zM369 319q0 -59 43 -100.5t124 -41.5 q108 0 176.5 74t68.5 197v34h-182q-112 0 -171 -49t-59 -114z" />
<glyph unicode="b" horiz-adv-x="1315" d="M167 0v1517h265v-572q39 74 132 122t187 48q199 0 340 -158t141 -411t-141 -411t-340 -158q-100 0 -196.5 52.5t-129.5 128.5v-158h-258zM432 546q0 -159 75.5 -251.5t187.5 -92.5t186.5 92.5t74.5 251.5q0 161 -73.5 253.5t-187.5 92.5t-188.5 -92.5t-74.5 -253.5z" />
<glyph unicode="c" horiz-adv-x="1057" d="M83 546q0 252 158.5 410.5t392.5 158.5q206 0 370 -143l-162 -162q-82 82 -197 82q-121 0 -203 -97t-82 -249t81.5 -248t203.5 -96q117 0 197 80l162 -162q-164 -143 -370 -143q-234 0 -392.5 158.5t-158.5 410.5z" />
<glyph unicode="d" horiz-adv-x="1315" d="M83 546q0 253 142 411t339 158q96 0 188.5 -48t130.5 -122v572h267v-1517h-258v158q-35 -76 -131.5 -128.5t-196.5 -52.5q-197 0 -339 158t-142 411zM360 546q0 -159 75 -251.5t187 -92.5t186.5 92.5t74.5 251.5t-74.5 252.5t-186.5 93.5q-114 0 -188 -92.5t-74 -253.5z " />
<glyph unicode="e" horiz-adv-x="1168" d="M83 546q0 253 145 411t371 158t363.5 -153t137.5 -416v-73h-734q18 -132 98.5 -207.5t199.5 -75.5q137 0 219 85l155 -155q-162 -143 -389 -143q-247 0 -406.5 157t-159.5 412zM370 663h458q-18 121 -77 184t-147 63q-90 0 -152 -65t-82 -182z" />
<glyph unicode="f" horiz-adv-x="834" d="M38 880v212h208v137q0 127 92.5 215t245.5 88q100 0 194 -23v-212q-61 23 -120 23q-147 0 -147 -129v-99h255v-212h-255v-880h-265v880h-208z" />
<glyph unicode="g" horiz-adv-x="1315" d="M83 561.5q0 242.5 142 398t339 155.5q106 0 199 -54t129 -130v161h258v-993q0 -212 -158.5 -356.5t-415.5 -144.5q-272 0 -432 158l152 151q100 -97 268 -97q138 0 228.5 80.5t90.5 208.5v83q-39 -74 -128 -124t-191 -50q-197 0 -339 155.5t-142 398zM360 561 q0 -150 74 -239.5t188 -89.5q111 0 186 89.5t75 239.5q0 147 -75 239t-186 92t-186.5 -92t-75.5 -239z" />
<glyph unicode="h" d="M167 0v1517h265v-581q38 80 126 129.5t208 49.5q179 0 290.5 -117t111.5 -315v-683h-265v645q0 123 -55.5 185t-157.5 62q-115 0 -186.5 -88t-71.5 -258v-546h-265z" />
<glyph unicode="i" horiz-adv-x="599" d="M164 1259v258h271v-258h-271zM167 0v1092h265v-1092h-265z" />
<glyph unicode="j" horiz-adv-x="621" d="M-76 -159q58 -23 118 -23q147 0 148 129v1145h265v-1183q0 -127 -92.5 -215t-245.5 -88q-109 0 -193 22v213zM185 1259v258h273v-258h-273z" />
<glyph unicode="k" horiz-adv-x="1190" d="M167 0v1517h265v-907l433 482h326l-493 -531l525 -561h-336l-455 508v-508h-265z" />
<glyph unicode="l" horiz-adv-x="599" d="M167 0v1517h265v-1517h-265z" />
<glyph unicode="m" horiz-adv-x="1926" d="M167 0v1092h258v-171q82 194 299 194q127 0 209 -63t124 -158q103 221 331 221q168 0 270 -117t102 -311v-687h-266v645q0 247 -182 247q-86 0 -151.5 -90.5t-65.5 -244.5v-557h-264v645q0 247 -183 247q-86 0 -151 -90.5t-65 -244.5v-557h-265z" />
<glyph unicode="n" d="M167 0v1092h258v-168q38 86 128 138.5t213 52.5q179 0 290.5 -117t111.5 -315v-683h-265v645q0 123 -55.5 185t-157.5 62q-115 0 -186.5 -88t-71.5 -258v-546h-265z" />
<glyph unicode="o" horiz-adv-x="1228" d="M83 546q0 258 149.5 413.5t382 155.5t381.5 -155.5t149 -413.5t-149 -413.5t-381.5 -155.5t-382 155.5t-149.5 413.5zM360 546q0 -161 71 -252.5t183.5 -91.5t183.5 91.5t71 252.5t-70.5 253.5t-184.5 92.5q-111 0 -182.5 -92.5t-71.5 -253.5z" />
<glyph unicode="p" horiz-adv-x="1315" d="M167 -379v1471h258v-161q33 77 129.5 130.5t196.5 53.5q199 0 340 -158t141 -411t-141 -411t-340 -158q-94 0 -186.5 47t-132.5 120v-523h-265zM432 546q0 -159 75.5 -251.5t187.5 -92.5t186.5 92.5t74.5 251.5q0 161 -73.5 253.5t-187.5 92.5t-188.5 -92.5t-74.5 -253.5 z" />
<glyph unicode="q" horiz-adv-x="1315" d="M83 546q0 253 142 411t339 158q100 0 196.5 -53t131.5 -131v161h258v-1471h-267v523q-38 -73 -131.5 -120t-187.5 -47q-197 0 -339 158t-142 411zM360 546q0 -159 75 -251.5t187 -92.5t186.5 92.5t74.5 251.5t-74.5 252.5t-186.5 93.5q-114 0 -188 -92.5t-74 -253.5z" />
<glyph unicode="r" horiz-adv-x="834" d="M167 0v1092h258v-167q90 190 376 190v-243q-40 4 -74 4q-54 0 -96 -10q-96 -21 -147.5 -103.5t-51.5 -219.5v-543h-265z" />
<glyph unicode="s" horiz-adv-x="945" d="M56 120l156 155q36 -38 98 -65.5t130 -27.5q82 0 129 32.5t47 84.5q0 42 -29 72.5t-76 49.5t-103 37t-112 43t-103 60t-76 95t-29 140q0 129 111.5 228t298.5 99q220 0 373 -151l-155 -154q-93 93 -212 92q-73 0 -114 -35t-41 -79q0 -47 54.5 -78t132 -56t155 -60 t132 -110t54.5 -187q0 -138 -112.5 -236.5t-324.5 -98.5q-114 0 -215 41.5t-169 108.5z" />
<glyph unicode="t" horiz-adv-x="834" d="M38 880v212h208v311h265v-311h255v-212h-255v-554q0 -129 147 -129q59 0 120 23v-212q-83 -23 -194 -23q-153 0 -245.5 88t-92.5 215v592h-208z" />
<glyph unicode="u" d="M167 410v682h265v-644q0 -123 55.5 -184.5t157.5 -61.5q117 0 187.5 87t70.5 257v546h265v-1092h-258v168q-38 -86 -128 -138.5t-213 -52.5q-179 0 -290.5 117t-111.5 316z" />
<glyph unicode="v" horiz-adv-x="1155" d="M0 1092h291l281 -814l291 814h293l-437 -1092h-290z" />
<glyph unicode="w" horiz-adv-x="1664" d="M15 1092h279l194 -827l211 827h266l211 -827l194 827h279l-316 -1092h-300l-202 792l-200 -792h-300z" />
<glyph unicode="x" horiz-adv-x="1122" d="M30 0l375 563l-358 529h320l193 -324l195 324h321l-358 -529l374 -563h-311l-220 361l-220 -361h-311z" />
<glyph unicode="y" horiz-adv-x="1155" d="M0 1092h291l281 -814l291 814h293l-520 -1298q-26 -71 -105 -129.5t-209 -58.5q-109 0 -193 22v213q58 -23 118 -23q105 0 132 61q8 3 27.5 49t24.5 64z" />
<glyph unicode="z" horiz-adv-x="963" d="M76 0v194l478 686h-463v212h781v-197l-478 -678h493v-217h-811z" />
<glyph unicode="{" horiz-adv-x="811" d="M79 645v227h54q67 0 116.5 49.5t49.5 117.5v326q0 100 71 171.5t173 71.5h208v-197h-103q-41 0 -70 -29t-29 -70v-311q0 -93 -62 -161.5t-150 -80.5q88 -12 150 -81.5t62 -161.5v-311q0 -41 29 -70t70 -29h103v-197h-208q-102 0 -173 71.5t-71 171.5v326 q0 70 -48.5 118.5t-117.5 48.5h-54z" />
<glyph unicode="|" horiz-adv-x="667" d="M246 -379v1896h176v-1896h-176z" />
<glyph unicode="}" horiz-adv-x="811" d="M59 -91v197h105q41 0 69 29t28 70v311q0 93 62 161.5t150 81.5q-88 12 -150 81t-62 161v311q0 41 -28 70t-69 29h-105v197h210q102 0 173 -71.5t71 -171.5v-326q0 -68 49 -117.5t116 -49.5h53v-227h-53q-68 0 -116.5 -48.5t-48.5 -118.5v-326q0 -100 -71.5 -171.5 t-172.5 -71.5h-210z" />
<glyph unicode="~" horiz-adv-x="882" d="M49 640l88 87q70 73 176 72q103 0 175 -72l26 -28q26 -23 58 -22q33 0 58 24l83 83l121 -118l-88 -86q-70 -73 -176 -73q-103 0 -176 73l-25 27q-23 21 -56 21q-36 0 -60 -23l-83 -83z" />
<glyph unicode="&#xa1;" horiz-adv-x="629" d="M152 0l63 1092h199l64 -1092h-326zM170 1241v276h290v-276h-290z" />
<glyph unicode="&#xa2;" horiz-adv-x="1039" d="M73 759q0 223 126.5 374.5t323.5 184.5v199h126v-191q190 -8 345 -141l-163 -163q-79 76 -182 81v-690q105 6 182 82l163 -163q-155 -134 -345 -142v-190h-126v197q-197 33 -323.5 186t-126.5 376zM349 758.5q0 -112.5 47.5 -196.5t126.5 -118v629q-79 -35 -126.5 -118.5 t-47.5 -196z" />
<glyph unicode="&#xa3;" horiz-adv-x="1196" d="M76 0v240h152v405h-152v129h152v268q0 209 140 353.5t353 144.5q229 0 400 -175l-191 -191q-96 96 -209 96q-91 0 -153.5 -67.5t-62.5 -160.5l-1 -268h235v-129h-235v-405h622v-240h-1050z" />
<glyph unicode="&#xa5;" horiz-adv-x="1306" d="M-41 1517h360l333 -573l336 573h359l-470 -733h277v-129h-356v-106h356v-129h-356v-420h-290v420h-356v129h356v106h-356v129h277z" />
<glyph unicode="&#xa6;" horiz-adv-x="667" d="M246 -76v721h176v-721h-176zM246 872v721h176v-721h-176z" />
<glyph unicode="&#xa7;" horiz-adv-x="1002" d="M91 787q0 134 100 225q-68 77 -68 202q0 130 110.5 228t298.5 98q221 0 372 -150l-155 -155q-93 93 -212 92q-71 0 -112 -35.5t-41 -77.5q0 -47 54.5 -78.5t132 -56.5t155 -59.5t132 -110t54.5 -187.5q0 -132 -102 -224q70 -80 70 -202q0 -129 -111.5 -227.5 t-298.5 -98.5q-223 0 -373 150l155 155q93 -93 212 -93q71 0 112 35t41 79q0 35 -28.5 60.5t-75 43t-102.5 36t-113 45.5t-103 63.5t-75 98.5t-29 144zM352 793q0 -17 4 -30.5t13 -25.5l16.5 -22t25.5 -19.5t28 -15.5t35 -15.5t35.5 -13t40.5 -14t40 -13.5q61 33 61 92 q0 17 -4 30.5t-13 25.5l-16.5 22t-26 20t-28 16t-34.5 15t-36 13t-40.5 14.5t-39.5 13.5q-61 -34 -61 -93z" />
<glyph unicode="&#xa8;" horiz-adv-x="629" d="M8 1262v252h230v-252h-230zM390 1262v252h232v-252h-232z" />
<glyph unicode="&#xa9;" horiz-adv-x="1774" d="M129 758.5q0 206.5 101.5 381t276 276t381 101.5t381 -101.5t276 -276t101.5 -381t-101.5 -381t-276 -276t-381 -101.5t-381 101.5t-276 276t-101.5 381zM255 758.5q0 -262.5 185 -447.5t447.5 -185t447.5 185t185 447.5t-185 447.5t-447.5 185t-447.5 -185t-185 -447.5z M454 758.5q0 215.5 122.5 348t323.5 132.5q181 0 292 -112l-104 -103q-71 71 -184 71q-118 0 -194.5 -90t-76.5 -246.5t76.5 -246.5t194.5 -90q112 0 184 71l104 -103q-112 -112 -292 -112q-200 0 -323 132.5t-123 348z" />
<glyph unicode="&#xaa;" horiz-adv-x="872" d="M85 966q0 106 89.5 176t265.5 70h118q0 61 -4 64q-3 49 -48 82t-109 33q-96 0 -166 -64l-107 108q123 103 292 103q152 0 239.5 -79.5t87.5 -202.5v-497h-179v115q-59 -130 -229 -131q-106 0 -178 65t-72 158zM272 980q0 -42 30 -70.5t86 -28.5q74 0 122 52t48 137v22 h-126q-77 0 -118.5 -33t-41.5 -79z" />
<glyph unicode="&#xab;" horiz-adv-x="1074" d="M114 607l212 425h264l-212 -425l212 -425h-264zM520 607l213 425h264l-213 -425l213 -425h-264z" />
<glyph unicode="&#xad;" horiz-adv-x="705" d="M91 473v190h523v-190h-523z" />
<glyph unicode="&#xae;" horiz-adv-x="1774" d="M129 758.5q0 206.5 101.5 381t276 276t381 101.5t381 -101.5t276 -276t101.5 -381t-101.5 -381t-276 -276t-381 -101.5t-381 101.5t-276 276t-101.5 381zM255 758.5q0 -262.5 185 -447.5t447.5 -185t447.5 185t185 447.5t-185 447.5t-447.5 185t-447.5 -185t-185 -447.5z M573 291v935h340q144 0 221 -70.5t77 -178.5q0 -76 -45.5 -139.5t-118.5 -85.5q108 -17 133 -142l67 -319h-184l-56 290q-21 100 -121 100h-140v-390h-173zM746 825h135q67 0 109.5 36.5t42.5 95.5q0 56 -33.5 90.5t-101.5 34.5h-152v-257z" />
<glyph unicode="&#xaf;" horiz-adv-x="682" d="M94 1320v177h493v-177h-493z" />
<glyph unicode="&#xb0;" horiz-adv-x="773" d="M76 1229q0 129 91 220t220 91t220 -91t91 -220t-91 -220t-220 -91t-220 91t-91 220zM243 1229q0 -59 42.5 -101.5t101.5 -42.5t101.5 42.5t42.5 101.5t-42.5 101.5t-101.5 42.5t-101.5 -42.5t-42.5 -101.5z" />
<glyph unicode="&#xb1;" horiz-adv-x="1152" d="M83 124v192h987v-192h-987zM83 777v189h399v399h190v-399h398v-189h-398v-398h-190v398h-399z" />
<glyph unicode="&#xb2;" horiz-adv-x="814" d="M68 505v129q253 231 351 357.5t98 243.5q0 59 -41.5 100.5t-111.5 41.5q-93 0 -177 -81l-116 113q121 124 302 125q150 0 241 -83.5t91 -212.5q0 -127 -92.5 -265.5t-278.5 -308.5h403v-159h-669z" />
<glyph unicode="&#xb3;" horiz-adv-x="848" d="M76 611l115 116q79 -82 184 -82q80 0 131.5 43t51.5 105q0 64 -51.5 108t-131.5 44h-94v159h94q82 0 126.5 39t44.5 98t-45.5 97.5t-121.5 38.5q-96 0 -176 -83l-115 115q121 124 291 125q152 0 250.5 -81.5t98.5 -208.5q0 -79 -47 -139t-105 -79q70 -21 122.5 -90.5 t52.5 -146.5q0 -127 -105.5 -214.5t-266.5 -87.5q-192 0 -303 124z" />
<glyph unicode="&#xb4;" horiz-adv-x="682" d="M117 1198l145 349h302l-297 -349h-150z" />
<glyph unicode="&#xb5;" d="M167 -379v1471h265v-644q0 -123 55.5 -184.5t157.5 -61.5q117 0 187.5 87t70.5 257v546h265v-1092h-258v168q-38 -86 -128 -138.5t-213 -52.5q-85 0 -137 44v-400h-265z" />
<glyph unicode="&#xb6;" horiz-adv-x="1304" d="M61 1099.5q0 171.5 122.5 294.5t294.5 123h667v-1896h-262v1684h-144v-1684h-261v1062q-171 0 -294 122.5t-123 294z" />
<glyph unicode="&#xb7;" horiz-adv-x="591" d="M152 467v278h288v-278h-288z" />
<glyph unicode="&#xb8;" horiz-adv-x="713" d="M121 -314l76 77q47 -44 109 -44q42 0 64.5 17.5t22.5 43.5q0 65 -149 65l76 155h143l-37 -73q59 -6 101.5 -44.5t42.5 -96.5q0 -68 -69.5 -120.5t-183.5 -52.5q-113 0 -196 73z" />
<glyph unicode="&#xb9;" horiz-adv-x="678" d="M68 1238v156q61 9 131 47t107 76h158v-1012h-179v824q-27 -27 -89.5 -54.5t-127.5 -36.5z" />
<glyph unicode="&#xba;" horiz-adv-x="888" d="M76 1138q0 179 104 286.5t264.5 107.5t264.5 -107.5t104 -286.5t-104 -287t-264.5 -108t-264.5 108t-104 287zM269 1138q0 -112 49 -176t126.5 -64t126.5 64t49 176t-48.5 175.5t-127.5 63.5q-77 0 -126 -63.5t-49 -175.5z" />
<glyph unicode="&#xbb;" horiz-adv-x="1074" d="M77 182l213 425l-213 425h264l213 -425l-213 -425h-264zM484 182l212 425l-212 425h264l212 -425l-212 -425h-264z" />
<glyph unicode="&#xbc;" horiz-adv-x="1720" d="M68 1238v156q61 9 131 47t107 76h158v-1012h-179v824q-27 -27 -89.5 -54.5t-127.5 -36.5zM217 -76l986 1669h187l-986 -1669h-187zM877 228v165l440 619h188v-625h146v-159h-146v-228h-178v228h-450zM1056 387h271v390z" />
<glyph unicode="&#xbd;" horiz-adv-x="1817" d="M68 1238v156q61 9 131 47t107 76h158v-1012h-179v824q-27 -27 -89.5 -54.5t-127.5 -36.5zM217 -76l986 1669h187l-986 -1669h-187zM1079 0v129q253 231 351 357.5t98 243.5q0 59 -42 100.5t-112 41.5q-93 0 -177 -82l-115 114q121 124 302 125q150 0 241 -83.5t91 -212.5 q0 -127 -92.5 -265.5t-279.5 -308.5h404v-159h-669z" />
<glyph unicode="&#xbe;" horiz-adv-x="1905" d="M76 611l115 116q79 -82 184 -82q80 0 131.5 43t51.5 105q0 64 -51.5 108t-131.5 44h-94v159h94q82 0 126.5 39t44.5 98t-45.5 97.5t-121.5 38.5q-96 0 -176 -83l-115 115q121 124 291 125q152 0 250.5 -81.5t98.5 -208.5q0 -79 -47 -139t-105 -79q70 -21 122.5 -90.5 t52.5 -146.5q0 -127 -105.5 -214.5t-266.5 -87.5q-192 0 -303 124zM400 -76l987 1669h186l-986 -1669h-187zM1062 228v165l440 619h186v-625h146v-159h-146v-228h-176v228h-450zM1239 387h273v390z" />
<glyph unicode="&#xbf;" horiz-adv-x="1080" d="M83 407q0 105 39 180.5t112 145.5q5 12 53 52t53 48q76 73 107 126t31 133h258q0 -202 -126 -330q-5 -11 -51 -51t-51 -50q-65 -65 -94.5 -117t-29.5 -130q0 -82 60.5 -144t154.5 -62q140 0 264 124l173 -173q-190 -187 -447 -186q-225 0 -365.5 126t-140.5 308z M463 1241v276h288v-276h-288z" />
<glyph unicode="&#xc0;" horiz-adv-x="1441" d="M0 0l564 1517h313l564 -1517h-306l-122 349h-584l-121 -349h-308zM440 1954h302l145 -349h-148zM510 587h421l-210 605z" />
<glyph unicode="&#xc1;" horiz-adv-x="1441" d="M0 0l564 1517h313l564 -1517h-306l-122 349h-584l-121 -349h-308zM510 587h421l-210 605zM549 1590l146 349h302l-299 -349h-149z" />
<glyph unicode="&#xc2;" horiz-adv-x="1441" d="M0 0l564 1517h313l564 -1517h-306l-122 349h-584l-121 -349h-308zM417 1590l187 349h232l186 -349h-194l-107 197l-110 -197h-194zM510 587h421l-210 605z" />
<glyph unicode="&#xc3;" horiz-adv-x="1441" d="M0 0l564 1517h313l564 -1517h-306l-122 349h-584l-121 -349h-308zM343 1625q0 105 73.5 178.5t178.5 73.5q103 0 176 -73l27 -26q23 -23 56 -23t57.5 24.5t24.5 57.5h170q0 -105 -73.5 -178.5t-178.5 -73.5q-103 0 -176 73l-27 26q-23 23 -56.5 23t-57.5 -24.5t-24 -57.5 h-170zM510 587h421l-210 605z" />
<glyph unicode="&#xc4;" horiz-adv-x="1441" d="M0 0l564 1517h313l564 -1517h-306l-122 349h-584l-121 -349h-308zM413 1638v251h232v-251h-232zM510 587h421l-210 605zM796 1638v251h231v-251h-231z" />
<glyph unicode="&#xc5;" horiz-adv-x="1441" d="M0 0l564 1517h313l564 -1517h-306l-122 349h-584l-121 -349h-308zM510 587h421l-210 605zM546 1744.5q0 71.5 51.5 123t123 51.5t123 -51.5t51.5 -123t-51.5 -123t-123 -51.5t-123 51.5t-51.5 123zM614 1744.5q0 -42.5 31.5 -74.5t75.5 -32t75 32t31 74.5t-31 74.5 t-75 32t-75.5 -32t-31.5 -74.5z" />
<glyph unicode="&#xc6;" horiz-adv-x="1794" d="M-152 0l903 1517h913v-240h-534v-394h521v-240h-521v-403h551v-240h-839v349h-464l-196 -349h-334zM510 587h332v584z" />
<glyph unicode="&#xc7;" horiz-adv-x="1331" d="M91 759q0 352 200.5 566.5t527.5 214.5q294 0 477 -182l-173 -173q-115 117 -296 117q-191 0 -314 -146.5t-123 -397t123 -397t314 -146.5q181 0 296 117l173 -173q-165 -165 -425 -180l-24 -52q58 -6 100 -44t42 -97q0 -68 -69.5 -120.5t-183.5 -52.5q-111 0 -194 73 l74 77q47 -44 109 -44q42 0 65 17.5t23 43.5q0 65 -150 65l68 137q-291 30 -465.5 239.5t-174.5 537.5z" />
<glyph unicode="&#xc8;" horiz-adv-x="1134" d="M182 0v1517h824v-240h-536v-394h521v-240h-521v-403h551v-240h-839zM297 1939h302l144 -349h-148z" />
<glyph unicode="&#xc9;" horiz-adv-x="1134" d="M182 0v1517h824v-240h-536v-394h521v-240h-521v-403h551v-240h-839zM423 1590l146 349h303l-299 -349h-150z" />
<glyph unicode="&#xca;" horiz-adv-x="1134" d="M182 0v1517h824v-240h-536v-394h521v-240h-521v-403h551v-240h-839zM294 1590l187 349h232l187 -349h-195l-107 197l-110 -197h-194z" />
<glyph unicode="&#xcb;" horiz-adv-x="1134" d="M182 0v1517h824v-240h-536v-394h521v-240h-521v-403h551v-240h-839zM299 1638v251h232v-251h-232zM683 1638v251h230v-251h-230z" />
<glyph unicode="&#xcc;" horiz-adv-x="652" d="M42 1939h302l146 -349h-150zM182 0v1517h288v-1517h-288z" />
<glyph unicode="&#xcd;" horiz-adv-x="652" d="M164 1590l144 349h303l-298 -349h-149zM182 0v1517h288v-1517h-288z" />
<glyph unicode="&#xce;" horiz-adv-x="652" d="M23 1590l186 349h232l187 -349h-194l-108 197l-109 -197h-194zM182 0v1517h288v-1517h-288z" />
<glyph unicode="&#xcf;" horiz-adv-x="652" d="M20 1638v251h230v-251h-230zM182 0v1517h288v-1517h-288zM402 1638v251h232v-251h-232z" />
<glyph unicode="&#xd0;" horiz-adv-x="1506" d="M20 663v191h162v663h452q228 0 401.5 -83.5t276.5 -257t103 -417.5q0 -184 -59.5 -329.5t-166 -239t-247.5 -142t-308 -48.5h-452v663h-162zM470 240h157q217 0 352.5 135t135.5 383.5t-136 383.5t-352 135h-157v-423h164v-191h-164v-423z" />
<glyph unicode="&#xd1;" horiz-adv-x="1539" d="M182 0v1517h361l545 -1153v1153h270v-1517h-361l-545 1153v-1153h-270zM388 1625q0 105 74 178.5t178 73.5q103 0 176 -73l27 -26q23 -23 56.5 -23t58 24.5t24.5 57.5h169q0 -105 -73.5 -178.5t-177.5 -73.5q-103 0 -176 73l-28 26q-23 23 -56 23t-57.5 -24.5 t-24.5 -57.5h-170z" />
<glyph unicode="&#xd2;" horiz-adv-x="1577" d="M91 758.5q0 351.5 193.5 566.5t504.5 215t504.5 -215t193.5 -566.5t-193.5 -566.5t-504.5 -215t-504.5 215t-193.5 566.5zM390 758.5q0 -250.5 112 -397t287 -146.5q170 0 284.5 147.5t114.5 396t-114.5 396t-284.5 147.5q-174 0 -286.5 -146.5t-112.5 -397zM458 1939 h302l146 -349h-149z" />
<glyph unicode="&#xd3;" horiz-adv-x="1577" d="M91 758.5q0 351.5 193.5 566.5t504.5 215t504.5 -215t193.5 -566.5t-193.5 -566.5t-504.5 -215t-504.5 215t-193.5 566.5zM390 758.5q0 -250.5 112 -397t287 -146.5q170 0 284.5 147.5t114.5 396t-114.5 396t-284.5 147.5q-174 0 -286.5 -146.5t-112.5 -397zM671 1590 l145 349h302l-297 -349h-150z" />
<glyph unicode="&#xd4;" horiz-adv-x="1577" d="M91 758.5q0 351.5 193.5 566.5t504.5 215t504.5 -215t193.5 -566.5t-193.5 -566.5t-504.5 -215t-504.5 215t-193.5 566.5zM390 758.5q0 -250.5 112 -397t287 -146.5q170 0 284.5 147.5t114.5 396t-114.5 396t-284.5 147.5q-174 0 -286.5 -146.5t-112.5 -397zM485 1590 l187 349h232l187 -349h-194l-108 197l-109 -197h-195z" />
<glyph unicode="&#xd5;" horiz-adv-x="1577" d="M91 758.5q0 351.5 193.5 566.5t504.5 215t504.5 -215t193.5 -566.5t-193.5 -566.5t-504.5 -215t-504.5 215t-193.5 566.5zM390 758.5q0 -250.5 112 -397t287 -146.5q170 0 284.5 147.5t114.5 396t-114.5 396t-284.5 147.5q-174 0 -286.5 -146.5t-112.5 -397zM407 1625 q0 105 73.5 178.5t177.5 73.5q103 0 176 -73l28 -26q23 -23 56 -23t57.5 24.5t24.5 57.5h170q0 -105 -74 -178.5t-178 -73.5q-103 0 -176 73l-27 26q-23 23 -56.5 23t-58 -24.5t-24.5 -57.5h-169z" />
<glyph unicode="&#xd6;" horiz-adv-x="1577" d="M91 758.5q0 351.5 193.5 566.5t504.5 215t504.5 -215t193.5 -566.5t-193.5 -566.5t-504.5 -215t-504.5 215t-193.5 566.5zM390 758.5q0 -250.5 112 -397t287 -146.5q170 0 284.5 147.5t114.5 396t-114.5 396t-284.5 147.5q-174 0 -286.5 -146.5t-112.5 -397zM481 1638 v251h232v-251h-232zM865 1638v251h232v-251h-232z" />
<glyph unicode="&#xd7;" horiz-adv-x="1152" d="M126 426l317 317l-317 317l133 134l317 -317l318 317l133 -134l-317 -317l317 -317l-133 -133l-318 317l-317 -317z" />
<glyph unicode="&#xd8;" horiz-adv-x="1577" d="M91 759q0 352 193.5 566.5t504.5 214.5q200 0 355 -93l97 146h205l-169 -252q209 -217 210 -582q0 -352 -193.5 -567t-504.5 -215q-200 0 -355 93l-96 -146h-205l167 252q-209 217 -209 583zM390 759q0 -199 74 -336l534 806q-94 73 -209 73q-174 0 -286.5 -146.5 t-112.5 -396.5zM578 287q93 -71 211 -72q170 0 284.5 147.5t114.5 396.5q0 193 -74 333z" />
<glyph unicode="&#xd9;" horiz-adv-x="1509" d="M182 498v1019h288v-1019q0 -137 80.5 -213t205 -76t204 76t79.5 213v1019h288v-1019q0 -250 -157.5 -389t-414.5 -139q-258 0 -415.5 139t-157.5 389zM448 1939h301l146 -349h-149z" />
<glyph unicode="&#xda;" horiz-adv-x="1509" d="M182 498v1019h288v-1019q0 -137 80.5 -213t205 -76t204 76t79.5 213v1019h288v-1019q0 -250 -157.5 -389t-414.5 -139q-258 0 -415.5 139t-157.5 389zM617 1590l146 349h302l-297 -349h-151z" />
<glyph unicode="&#xdb;" horiz-adv-x="1509" d="M182 498v1019h288v-1019q0 -137 80.5 -213t205 -76t204 76t79.5 213v1019h288v-1019q0 -250 -157.5 -389t-414.5 -139q-258 0 -415.5 139t-157.5 389zM452 1590l187 349h232l186 -349h-194l-108 197l-109 -197h-194z" />
<glyph unicode="&#xdc;" horiz-adv-x="1509" d="M182 498v1019h288v-1019q0 -137 80.5 -213t205 -76t204 76t79.5 213v1019h288v-1019q0 -250 -157.5 -389t-414.5 -139q-258 0 -415.5 139t-157.5 389zM448 1638v251h230v-251h-230zM831 1638v251h231v-251h-231z" />
<glyph unicode="&#xdd;" horiz-adv-x="1260" d="M-64 1517h360l335 -573l334 573h361l-551 -860v-657h-288v657zM469 1590l145 349h302l-299 -349h-148z" />
<glyph unicode="&#xde;" horiz-adv-x="1271" d="M182 0v1517h288v-309h251q223 0 363 -129t140 -320q0 -194 -139.5 -322t-363.5 -128h-251v-309h-288zM470 549h225q109 0 171 58.5t62 149.5q0 93 -62 152t-171 59h-225v-419z" />
<glyph unicode="&#xdf;" horiz-adv-x="1287" d="M167 0v1101q0 191 128 315t353 124q217 0 349.5 -114.5t132.5 -289.5q0 -118 -62 -203t-152 -129q120 -41 193 -137.5t73 -215.5q0 -209 -141 -341.5t-386 -132.5q-70 0 -132 14v223q50 -17 111 -17q120 0 191.5 72t71.5 177t-70 176t-185 71h-119v214h119 q96 0 153.5 59.5t57.5 147t-59.5 147t-149 59.5t-151 -63t-61.5 -151v-1106h-265z" />
<glyph unicode="&#xe0;" horiz-adv-x="1213" d="M99 299q0 152 129 252.5t382 100.5h171q0 88 -7 94q-6 68 -70 116t-155 48q-137 0 -240 -92l-154 154q181 150 421 151q217 0 344 -114.5t127 -290.5v-718h-258v167q-41 -90 -126 -140t-205 -50q-153 0 -256 94.5t-103 227.5zM293 1547h302l145 -349h-148zM369 319 q0 -59 43 -100.5t124 -41.5q108 0 176.5 74t68.5 197v34h-182q-112 0 -171 -49t-59 -114z" />
<glyph unicode="&#xe1;" horiz-adv-x="1213" d="M99 299q0 152 129 252.5t382 100.5h171q0 88 -7 94q-6 68 -70 116t-155 48q-137 0 -240 -92l-154 154q181 150 421 151q217 0 344 -114.5t127 -290.5v-718h-258v167q-41 -90 -126 -140t-205 -50q-153 0 -256 94.5t-103 227.5zM369 319q0 -59 43 -100.5t124 -41.5 q108 0 176.5 74t68.5 197v34h-182q-112 0 -171 -49t-59 -114zM428 1198l145 349h302l-299 -349h-148z" />
<glyph unicode="&#xe2;" horiz-adv-x="1213" d="M99 299q0 152 129 252.5t382 100.5h171q0 88 -7 94q-6 68 -70 116t-155 48q-137 0 -240 -92l-154 154q181 150 421 151q217 0 344 -114.5t127 -290.5v-718h-258v167q-41 -90 -126 -140t-205 -50q-153 0 -256 94.5t-103 227.5zM278 1198l186 349h232l187 -349h-194 l-108 198l-109 -198h-194zM369 319q0 -59 43 -100.5t124 -41.5q108 0 176.5 74t68.5 197v34h-182q-112 0 -171 -49t-59 -114z" />
<glyph unicode="&#xe3;" horiz-adv-x="1213" d="M99 299q0 152 129 252.5t382 100.5h171q0 88 -7 94q-6 68 -70 116t-155 48q-137 0 -240 -92l-154 154q181 150 421 151q217 0 344 -114.5t127 -290.5v-718h-258v167q-41 -90 -126 -140t-205 -50q-153 0 -256 94.5t-103 227.5zM203 1286q0 105 73.5 178.5t178.5 73.5 q103 0 176 -73l26 -25q26 -23 58 -23q33 0 57 24t24 58h170q0 -105 -74 -178.5t-177 -73.5q-105 0 -178 73l-26 26q-26 23 -56 22q-33 0 -57.5 -24t-24.5 -58h-170zM369 319q0 -59 43 -100.5t124 -41.5q108 0 176.5 74t68.5 197v34h-182q-112 0 -171 -49t-59 -114z" />
<glyph unicode="&#xe4;" horiz-adv-x="1213" d="M99 299q0 152 129 252.5t382 100.5h171q0 88 -7 94q-6 68 -70 116t-155 48q-137 0 -240 -92l-154 154q181 150 421 151q217 0 344 -114.5t127 -290.5v-718h-258v167q-41 -90 -126 -140t-205 -50q-153 0 -256 94.5t-103 227.5zM273 1262v252h231v-252h-231zM369 319 q0 -59 43 -100.5t124 -41.5q108 0 176.5 74t68.5 197v34h-182q-112 0 -171 -49t-59 -114zM657 1262v252h230v-252h-230z" />
<glyph unicode="&#xe5;" horiz-adv-x="1213" d="M99 299q0 152 129 252.5t382 100.5h171q0 88 -7 94q-6 68 -70 116t-155 48q-137 0 -240 -92l-154 154q181 150 421 151q217 0 344 -114.5t127 -290.5v-718h-258v167q-41 -90 -126 -140t-205 -50q-153 0 -256 94.5t-103 227.5zM369 319q0 -59 43 -100.5t124 -41.5 q108 0 176.5 74t68.5 197v34h-182q-112 0 -171 -49t-59 -114zM399 1380.5q0 72.5 51 123.5t123 51q71 0 123 -51t52 -123.5t-51.5 -123.5t-123.5 -51q-73 0 -123.5 51t-50.5 123.5zM467 1380.5q0 -43.5 31 -75t75 -31.5q42 0 73.5 31.5t31.5 75t-31 75t-74 31.5 q-44 0 -75 -31.5t-31 -75z" />
<glyph unicode="&#xe6;" horiz-adv-x="1855" d="M99 300q0 152 129 252t382 100h171q0 88 -7 94q-6 68 -70 116t-155 48q-137 0 -240 -92l-154 154q177 150 421 151q120 0 215.5 -40.5t149.5 -111.5q135 144 344 144q226 0 364 -153t138 -416v-73h-734q18 -132 98.5 -207.5t198.5 -75.5q135 0 220 85l155 -155 q-165 -143 -390 -143q-143 0 -257.5 64t-179.5 170q-50 -109 -159 -171.5t-261 -62.5q-168 0 -273.5 93t-105.5 230zM369 319q0 -59 43 -100.5t124 -41.5q108 0 176.5 74t68.5 197v34h-182q-112 0 -171 -49t-59 -114zM1056 663h458q-20 121 -78.5 184t-146.5 63 q-90 0 -151.5 -65t-81.5 -182z" />
<glyph unicode="&#xe7;" horiz-adv-x="1057" d="M83 546q0 252 158.5 410.5t392.5 158.5q206 0 370 -143l-162 -162q-82 82 -197 82q-121 0 -203 -97t-82 -249t81.5 -248t203.5 -96q117 0 197 80l162 -162q-147 -129 -320 -140l-26 -53q58 -6 100.5 -44t42.5 -97q0 -68 -70 -120.5t-183 -52.5q-109 0 -196 73l77 77 q44 -44 108 -44q42 0 65 17.5t23 43.5q0 65 -150 65l70 138q-202 32 -332 185t-130 378z" />
<glyph unicode="&#xe8;" horiz-adv-x="1168" d="M83 546q0 253 145 411t371 158t363.5 -153t137.5 -416v-73h-734q18 -132 98.5 -207.5t199.5 -75.5q137 0 219 85l155 -155q-162 -143 -389 -143q-247 0 -406.5 157t-159.5 412zM303 1547h302l146 -349h-149zM370 663h458q-18 121 -77 184t-147 63q-90 0 -152 -65 t-82 -182z" />
<glyph unicode="&#xe9;" horiz-adv-x="1168" d="M83 546q0 253 145 411t371 158t363.5 -153t137.5 -416v-73h-734q18 -132 98.5 -207.5t199.5 -75.5q137 0 219 85l155 -155q-162 -143 -389 -143q-247 0 -406.5 157t-159.5 412zM370 663h458q-18 121 -77 184t-147 63q-90 0 -152 -65t-82 -182zM451 1198l145 349h302 l-297 -349h-150z" />
<glyph unicode="&#xea;" horiz-adv-x="1168" d="M83 546q0 253 145 411t371 158t363.5 -153t137.5 -416v-73h-734q18 -132 98.5 -207.5t199.5 -75.5q137 0 219 85l155 -155q-162 -143 -389 -143q-247 0 -406.5 157t-159.5 412zM293 1198l186 349h232l187 -349h-194l-109 198l-108 -198h-194zM370 663h458 q-18 121 -77 184t-147 63q-90 0 -152 -65t-82 -182z" />
<glyph unicode="&#xeb;" horiz-adv-x="1168" d="M83 546q0 253 145 411t371 158t363.5 -153t137.5 -416v-73h-734q18 -132 98.5 -207.5t199.5 -75.5q137 0 219 85l155 -155q-162 -143 -389 -143q-247 0 -406.5 157t-159.5 412zM291 1262v252h232v-252h-232zM370 663h458q-18 121 -77 184t-147 63q-90 0 -152 -65 t-82 -182zM675 1262v252h232v-252h-232z" />
<glyph unicode="&#xec;" horiz-adv-x="599" d="M-8 1547h302l146 -349h-149zM167 0v1092h265v-1092h-265z" />
<glyph unicode="&#xed;" horiz-adv-x="599" d="M159 1198l146 349h302l-299 -349h-149zM167 0v1092h265v-1092h-265z" />
<glyph unicode="&#xee;" horiz-adv-x="599" d="M-3 1198l187 349h232l186 -349h-194l-108 198l-109 -198h-194zM167 0v1092h265v-1092h-265z" />
<glyph unicode="&#xef;" horiz-adv-x="599" d="M-8 1262v252h233v-252h-233zM167 0v1092h265v-1092h-265zM376 1262v252h231v-252h-231z" />
<glyph unicode="&#xf0;" d="M100 476q0 212 148.5 355.5t378.5 143.5q105 0 193.5 -50.5t121.5 -109.5q-5 202 -71 317l-97 -97l-134 133l97 97q-65 39 -150 40q-161 0 -281 -120l-173 173q77 77 194 129.5t257 52.5q194 0 335 -93l94 96l135 -135l-89 -88q159 -211 159 -561q0 -358 -148.5 -570 t-427.5 -212q-232 0 -387 142t-155 357zM373 476.5q0 -112.5 73.5 -193.5t195.5 -81q120 0 193.5 81t73.5 193.5t-73.5 193.5t-193.5 81q-121 0 -195 -81t-74 -193.5z" />
<glyph unicode="&#xf1;" d="M167 0v1092h258v-168q38 86 127.5 138.5t213.5 52.5q181 0 291.5 -117t110.5 -315v-683h-265v645q0 123 -55.5 185t-157.5 62q-115 0 -186.5 -88t-71.5 -258v-546h-265zM285 1286q0 105 73.5 178.5t178.5 73.5q103 0 176 -73l27 -25q23 -23 56.5 -23t57.5 24t24 58h170 q0 -105 -73.5 -178.5t-178.5 -73.5q-103 0 -176 73l-27 26q-23 23 -56 22.5t-57.5 -24.5t-24.5 -58h-170z" />
<glyph unicode="&#xf2;" horiz-adv-x="1228" d="M83 546q0 258 149.5 413.5t382 155.5t381.5 -155.5t149 -413.5t-149 -413.5t-381.5 -155.5t-382 155.5t-149.5 413.5zM316 1547h301l146 -349h-149zM360 546q0 -161 71 -252.5t183.5 -91.5t183.5 91.5t71 252.5t-70.5 253.5t-184.5 92.5q-111 0 -182.5 -92.5 t-71.5 -253.5z" />
<glyph unicode="&#xf3;" horiz-adv-x="1228" d="M83 546q0 258 149.5 413.5t382 155.5t381.5 -155.5t149 -413.5t-149 -413.5t-381.5 -155.5t-382 155.5t-149.5 413.5zM360 546q0 -161 71 -252.5t183.5 -91.5t183.5 91.5t71 252.5t-70.5 253.5t-184.5 92.5q-111 0 -182.5 -92.5t-71.5 -253.5zM466 1198l144 349h303 l-299 -349h-148z" />
<glyph unicode="&#xf4;" horiz-adv-x="1228" d="M83 546q0 258 149.5 413.5t382 155.5t381.5 -155.5t149 -413.5t-149 -413.5t-381.5 -155.5t-382 155.5t-149.5 413.5zM311 1198l187 349h232l186 -349h-194l-108 198l-109 -198h-194zM360 546q0 -161 71 -252.5t183.5 -91.5t183.5 91.5t71 252.5t-70.5 253.5t-184.5 92.5 q-111 0 -182.5 -92.5t-71.5 -253.5z" />
<glyph unicode="&#xf5;" horiz-adv-x="1228" d="M83 546q0 258 149.5 413.5t382 155.5t381.5 -155.5t149 -413.5t-149 -413.5t-381.5 -155.5t-382 155.5t-149.5 413.5zM234 1286q0 105 73.5 178.5t177.5 73.5q103 0 176 -73l26 -25q26 -23 58 -23q33 0 56.5 24t23.5 58h170q0 -105 -73.5 -178.5t-178.5 -73.5 q-103 0 -176 73l-25 26q-26 23 -57 22q-33 0 -57 -24t-24 -58h-170zM360 546q0 -161 71 -252.5t183.5 -91.5t183.5 91.5t71 252.5t-70.5 253.5t-184.5 92.5q-111 0 -182.5 -92.5t-71.5 -253.5z" />
<glyph unicode="&#xf6;" horiz-adv-x="1228" d="M83 546q0 258 149.5 413.5t382 155.5t381.5 -155.5t149 -413.5t-149 -413.5t-381.5 -155.5t-382 155.5t-149.5 413.5zM308 1262v252h231v-252h-231zM360 546q0 -161 71 -252.5t183.5 -91.5t183.5 91.5t71 252.5t-70.5 253.5t-184.5 92.5q-111 0 -182.5 -92.5 t-71.5 -253.5zM690 1262v252h232v-252h-232z" />
<glyph unicode="&#xf8;" horiz-adv-x="1228" d="M83 546q0 258 149.5 413.5t381.5 155.5q129 0 240 -52l65 105h172l-119 -186q173 -158 173 -436q0 -258 -149 -413.5t-382 -155.5q-129 0 -239 52l-66 -105h-171l118 187q-173 157 -173 435zM360 546q0 -121 42 -203l326 519q-52 30 -114 30q-111 0 -182.5 -92.5 t-71.5 -253.5zM502 231q49 -29 112 -29q112 0 183.5 91.5t71.5 252.5q0 118 -41 205z" />
<glyph unicode="&#xf9;" d="M167 410v682h265v-644q0 -123 55.5 -184.5t157.5 -61.5q117 0 187.5 87t70.5 257v546h265v-1092h-258v168q-38 -86 -127.5 -138.5t-213.5 -52.5q-181 0 -291.5 117t-110.5 316zM353 1547h302l146 -349h-150z" />
<glyph unicode="&#xfa;" d="M167 410v682h265v-644q0 -123 55.5 -184.5t157.5 -61.5q117 0 187.5 87t70.5 257v546h265v-1092h-258v168q-38 -86 -127.5 -138.5t-213.5 -52.5q-181 0 -291.5 117t-110.5 316zM514 1198l146 349h303l-299 -349h-150z" />
<glyph unicode="&#xfb;" d="M167 410v682h265v-644q0 -123 55.5 -184.5t157.5 -61.5q117 0 187.5 87t70.5 257v546h265v-1092h-258v168q-38 -86 -127.5 -138.5t-213.5 -52.5q-181 0 -291.5 117t-110.5 316zM364 1198l187 349h232l186 -349h-194l-108 198l-109 -198h-194z" />
<glyph unicode="&#xfc;" d="M167 410v682h265v-644q0 -123 55.5 -184.5t157.5 -61.5q117 0 187.5 87t70.5 257v546h265v-1092h-258v168q-38 -86 -127.5 -138.5t-213.5 -52.5q-181 0 -291.5 117t-110.5 316zM357 1262v252h232v-252h-232zM739 1262v252h232v-252h-232z" />
<glyph unicode="&#xfd;" horiz-adv-x="1155" d="M0 1092h293l279 -814l291 814h293l-519 -1298q-29 -71 -107 -129.5t-207 -58.5q-100 0 -194 22v213q58 -23 118 -23q108 0 132 61q8 3 27.5 49t24.5 64zM408 1198l146 349h302l-299 -349h-149z" />
<glyph unicode="&#xfe;" horiz-adv-x="1316" d="M167 -379v1896h265v-551q39 76 132 124t187 48q199 0 340.5 -160t141.5 -421t-141.5 -420.5t-340.5 -159.5q-94 0 -186.5 47t-132.5 120v-523h-265zM432 557q0 -167 75.5 -261t187.5 -94t186.5 94t74.5 261q0 168 -73 262t-188 94q-114 0 -188.5 -94t-74.5 -262z" />
<glyph unicode="&#xff;" horiz-adv-x="1155" d="M0 1092h293l279 -814l291 814h293l-519 -1298q-29 -71 -107 -129.5t-207 -58.5q-100 0 -194 22v213q58 -23 118 -23q108 0 132 61q8 3 27.5 49t24.5 64zM269 1262v252h232v-252h-232zM652 1262v252h231v-252h-231z" />
<glyph unicode="&#x152;" horiz-adv-x="2139" d="M91 758.5q0 351.5 193.5 566.5t504.5 215q246 0 399 -166v143h822v-240h-534v-394h519v-240h-519v-405h549v-238h-837v141q-156 -164 -399 -164q-311 0 -504.5 215t-193.5 566.5zM390 758.5q0 -250.5 112 -397t287 -146.5q170 0 284.5 147.5t114.5 396t-114.5 396 t-284.5 147.5q-174 0 -286.5 -146.5t-112.5 -397z" />
<glyph unicode="&#x153;" horiz-adv-x="1953" d="M83 546q0 258 149.5 413.5t381.5 155.5q123 0 225.5 -48.5t166.5 -138.5q62 88 160.5 137.5t218.5 49.5q226 0 363.5 -153t137.5 -416v-73h-735q18 -132 98.5 -207.5t199.5 -75.5q135 0 220 85l154 -155q-165 -143 -389 -143q-270 0 -421 196q-141 -196 -399 -196 q-232 0 -381.5 155.5t-149.5 413.5zM360 546q0 -161 71 -252.5t183.5 -91.5t183.5 91.5t71 252.5t-70.5 253.5t-184.5 92.5q-111 0 -182.5 -92.5t-71.5 -253.5zM1154 663h459q-20 121 -78.5 184t-146.5 63q-90 0 -152 -65t-82 -182z" />
<glyph unicode="&#x178;" horiz-adv-x="1260" d="M-64 1517h360l335 -573l334 573h361l-551 -860v-657h-288v657zM323 1620v251h231v-251h-231zM707 1620v251h231v-251h-231z" />
<glyph unicode="&#x2c6;" horiz-adv-x="682" d="M38 1198l187 349h233l187 -349h-194l-110 198l-107 -198h-196z" />
<glyph unicode="&#x2dc;" horiz-adv-x="866" d="M52 1286q0 105 73.5 178.5t177.5 73.5q103 0 176 -73l28 -25q23 -23 56 -23t57.5 24t24.5 58h170q0 -105 -74 -178.5t-178 -73.5q-103 0 -176 73l-27 26q-23 23 -56.5 22.5t-58 -24.5t-24.5 -58h-169z" />
<glyph unicode="&#x2000;" horiz-adv-x="976" />
<glyph unicode="&#x2001;" horiz-adv-x="1953" />
<glyph unicode="&#x2002;" horiz-adv-x="976" />
<glyph unicode="&#x2003;" horiz-adv-x="1953" />
<glyph unicode="&#x2004;" horiz-adv-x="650" />
<glyph unicode="&#x2005;" horiz-adv-x="488" />
<glyph unicode="&#x2006;" horiz-adv-x="324" />
<glyph unicode="&#x2007;" horiz-adv-x="324" />
<glyph unicode="&#x2008;" horiz-adv-x="244" />
<glyph unicode="&#x2009;" horiz-adv-x="389" />
<glyph unicode="&#x200a;" horiz-adv-x="107" />
<glyph unicode="&#x2010;" horiz-adv-x="705" d="M91 473v190h523v-190h-523z" />
<glyph unicode="&#x2011;" horiz-adv-x="705" d="M91 473v190h523v-190h-523z" />
<glyph unicode="&#x2012;" horiz-adv-x="705" d="M91 473v190h523v-190h-523z" />
<glyph unicode="&#x2013;" d="M91 473v190h1153v-190h-1153z" />
<glyph unicode="&#x2014;" horiz-adv-x="1949" d="M91 473v190h1767v-190h-1767z" />
<glyph unicode="&#x2018;" horiz-adv-x="591" d="M91 1009l194 508h161l-64 -508h-291z" />
<glyph unicode="&#x2019;" horiz-adv-x="591" d="M144 1009l64 508h293l-195 -508h-162z" />
<glyph unicode="&#x201a;" horiz-adv-x="584" d="M129 -231l65 509h291l-194 -509h-162z" />
<glyph unicode="&#x201c;" horiz-adv-x="1001" d="M91 1009l194 508h161l-64 -508h-291zM508 1009l194 508h161l-62 -508h-293z" />
<glyph unicode="&#x201d;" horiz-adv-x="1001" d="M137 1009l63 508h293l-194 -508h-162zM554 1009l63 508h293l-194 -508h-162z" />
<glyph unicode="&#x201e;" horiz-adv-x="1001" d="M129 -231l65 509h291l-194 -509h-162zM546 -231l64 509h293l-195 -509h-162z" />
<glyph unicode="&#x2022;" horiz-adv-x="644" d="M129 606.5q0 80.5 57 137.5t136 57q80 0 137 -57t57 -137.5t-57 -137t-137 -56.5q-79 0 -136 56.5t-57 137z" />
<glyph unicode="&#x2026;" horiz-adv-x="1456" d="M152 0v278h288v-278h-288zM584 0v278h288v-278h-288zM1016 0v278h289v-278h-289z" />
<glyph unicode="&#x202f;" horiz-adv-x="389" />
<glyph unicode="&#x2039;" horiz-adv-x="667" d="M114 607l212 425h264l-212 -425l212 -425h-264z" />
<glyph unicode="&#x203a;" horiz-adv-x="667" d="M77 182l213 425l-213 425h264l213 -425l-213 -425h-264z" />
<glyph unicode="&#x205f;" horiz-adv-x="488" />
<glyph unicode="&#x20ac;" horiz-adv-x="1362" d="M-15 576v129h138q-2 18 -2 53t2 54h-138v129h152q50 276 240 437.5t473 161.5q294 0 476 -182l-173 -173q-115 117 -296 117q-152 0 -263.5 -96t-152.5 -265h565v-129h-583q-2 -17 -1.5 -53.5t1.5 -53.5h583v-129h-565q41 -170 152.5 -265.5t263.5 -95.5q181 0 296 117 l173 -173q-182 -182 -476 -182q-282 0 -472.5 161.5t-240.5 437.5h-152z" />
<glyph unicode="&#x2122;" horiz-adv-x="914" d="M42 1434v83h307v-83h-100v-296h-103v296h-104zM388 1138v379h146l70 -232l70 232h145v-379h-97v247l-74 -247h-88l-75 247v-247h-97z" />
<glyph unicode="&#xe000;" horiz-adv-x="1090" d="M0 1090h1090v-1090h-1090v1090z" />
<glyph unicode="&#xfb01;" horiz-adv-x="1433" d="M38 880v212h208v137q0 127 92.5 215t245.5 88q100 0 194 -23v-212q-61 23 -120 23q-147 0 -147 -129v-99h255v-212h-255v-880h-265v880h-208zM997 1259v258h274v-258h-274zM1001 0v1092h266v-1092h-266z" />
<glyph unicode="&#xfb02;" horiz-adv-x="1433" d="M38 880v212h208v137q0 127 92.5 215t245.5 88q100 0 194 -23v-212q-61 23 -120 23q-147 0 -147 -129v-99h255v-212h-255v-880h-265v880h-208zM1001 0v1517h266v-1517h-266z" />
<glyph unicode="&#xfb03;" horiz-adv-x="2267" d="M1833 1259v258h271v-258h-271zM1836 0v1092h265v-1092h-265zM872 880v212h208v137q0 127 92.5 215t245.5 88q100 0 194 -23v-212q-61 23 -120 23q-147 0 -147 -129v-99h255v-212h-255v-880h-265v880h-208zM38 880v212h208v137q0 127 92.5 215t245.5 88q100 0 194 -23 v-212q-61 23 -120 23q-147 0 -147 -129v-99h255v-212h-255v-880h-265v880h-208z" />
<glyph unicode="&#xfb04;" horiz-adv-x="2267" d="M1836 0v1517h265v-1517h-265zM872 880v212h208v137q0 127 92.5 215t245.5 88q100 0 194 -23v-212q-61 23 -120 23q-147 0 -147 -129v-99h255v-212h-255v-880h-265v880h-208zM38 880v212h208v137q0 127 92.5 215t245.5 88q100 0 194 -23v-212q-61 23 -120 23 q-147 0 -147 -129v-99h255v-212h-255v-880h-265v880h-208z" />
</font>
</defs>
</svg>
